<svg width="25" height="24" viewBox="0 0 25 24" fill="none" xmlns="http://www.w3.org/2000/svg">
<path fill-rule="evenodd" clip-rule="evenodd" d="M8.35643 12.0032C8.35643 12.6502 7.83243 13.1742 7.18543 13.1742C6.53843 13.1742 6.01343 12.6502 6.01343 12.0032C6.01343 11.3572 6.53843 10.8322 7.18543 10.8322C7.83243 10.8322 8.35643 11.3572 8.35643 12.0032Z" fill="#B6DDD5"/>
<path fill-rule="evenodd" clip-rule="evenodd" d="M13.6421 12.0032C13.6421 12.6502 13.1181 13.1742 12.4711 13.1742C11.8241 13.1742 11.2991 12.6502 11.2991 12.0032C11.2991 11.3572 11.8241 10.8322 12.4711 10.8322C13.1181 10.8322 13.6421 11.3572 13.6421 12.0032Z" fill="#B6DDD5"/>
<path fill-rule="evenodd" clip-rule="evenodd" d="M18.9277 12.0032C18.9277 12.6502 18.4037 13.1742 17.7567 13.1742C17.1097 13.1742 16.5847 12.6502 16.5847 12.0032C16.5847 11.3572 17.1097 10.8322 17.7567 10.8322C18.4037 10.8322 18.9277 11.3572 18.9277 12.0032Z" fill="#B6DDD5"/>
<path fill-rule="evenodd" clip-rule="evenodd" d="M12.4707 0.747894C6.25472 0.747894 1.21472 5.78689 1.21472 12.0029C1.21472 14.2819 1.89672 16.3979 3.05972 18.1699L2.39472 21.9979L6.18072 21.3389C7.97672 22.5509 10.1407 23.2589 12.4707 23.2589C18.6867 23.2589 23.7267 18.2199 23.7267 12.0029C23.7267 5.78689 18.6867 0.747894 12.4707 0.747894Z" stroke="#B6DDD5" stroke-width="1.372" stroke-linecap="round"/>
</svg>
