<svg width="30" height="19" viewBox="0 0 30 19" fill="none" xmlns="http://www.w3.org/2000/svg">
<path fill-rule="evenodd" clip-rule="evenodd" d="M13.6279 12.1497C13.6279 15.4587 10.9449 18.1417 7.6369 18.1417C4.3269 18.1417 1.6449 15.4587 1.6449 12.1497C1.6449 8.84068 4.3269 6.15768 7.6369 6.15768C10.9449 6.15768 13.6279 8.84068 13.6279 12.1497Z" stroke="#B6DDD5" stroke-width="1.372" stroke-linecap="round"/>
<path fill-rule="evenodd" clip-rule="evenodd" d="M29.0205 12.1497C29.0205 15.4587 26.3375 18.1417 23.0285 18.1417C19.7185 18.1417 17.0365 15.4587 17.0365 12.1497C17.0365 8.84068 19.7185 6.15768 23.0285 6.15768C26.3375 6.15768 29.0205 8.84068 29.0205 12.1497Z" stroke="#B6DDD5" stroke-width="1.372" stroke-linecap="round"/>
<path d="M13.3301 10.2332C13.3301 9.12419 14.2291 8.22519 15.3391 8.22519C16.4481 8.22519 17.3471 9.12419 17.3471 10.2332" stroke="#B6DDD5" stroke-width="1.372" stroke-linecap="round"/>
<path d="M28.293 9.22879L24.239 2.57679C23.597 1.52279 22.205 1.21579 21.179 1.90279L20.702 2.22279" stroke="#B6DDD5" stroke-width="1.372" stroke-linecap="round"/>
<path d="M2.37701 9.22879L6.43101 2.57679C7.07301 1.52279 8.46501 1.21579 9.49101 1.90279L9.96901 2.22279" stroke="#B6DDD5" stroke-width="1.372" stroke-linecap="round"/>
</svg>
