<svg width="40" height="36" viewBox="0 0 40 36" fill="none" xmlns="http://www.w3.org/2000/svg">
<mask id="mask0" mask-type="alpha" maskUnits="userSpaceOnUse" x="0" y="0" width="40" height="36">
<path fill-rule="evenodd" clip-rule="evenodd" d="M0 0H40V36H0V0Z" fill="white"/>
</mask>
<g mask="url(#mask0)">
<path fill-rule="evenodd" clip-rule="evenodd" d="M35.2631 15.8358C35.1904 15.9337 35.0849 16.063 35.0356 16.1325C33.8354 17.3322 32.0201 17.9583 29.9266 17.962C29.2011 17.962 23.5803 17.6724 21.6278 8.86636C22.6649 5.26427 26.1719 2.85949 29.9085 3.24474C33.3933 3.60218 36.2866 6.38901 36.7865 9.87108C36.8508 10.3223 36.8761 10.7927 36.8601 11.3081L36.8508 11.5764C36.7509 13.1295 36.2017 14.601 35.2631 15.8358ZM19.4554 32.6471L19.3037 32.4739C15.3174 27.9765 6.06731 17.5143 4.76782 15.8212C3.46618 14.1297 2.91753 12.0093 3.22231 9.8498C3.71673 6.35454 6.6139 3.56003 10.1117 3.20561C13.9835 2.8082 17.5849 5.39144 18.4772 9.15932C20.8628 20.7703 28.9539 21.1292 29.9833 21.1292H29.9888C30.2469 21.1292 30.5022 21.1215 30.7546 21.1063C27.4727 24.8595 23.2406 29.6275 20.6863 32.499L20.6311 32.5558C20.4803 32.718 20.2532 32.8109 20.0054 32.8109C19.7568 32.8109 19.5304 32.718 19.4554 32.6471ZM39.8941 9.41751C39.1901 4.51669 35.125 0.595164 30.2248 0.0931124C26.1552 -0.31644 22.2388 1.6192 20.0201 4.93922C17.8094 1.59117 13.8738 -0.354955 9.80011 0.0538702C4.88502 0.551043 0.81071 4.48264 0.11492 9.40267C-0.312103 12.4148 0.459625 15.3837 2.28502 17.7627C3.60282 19.4774 12.1053 29.1039 17.0628 34.6966L17.1999 34.8355C17.942 35.5762 18.9596 36 20.0054 36C21.0819 36 22.1273 35.5518 22.8256 34.8219L22.9537 34.6936C26.6672 30.518 35.5231 20.5411 37.463 18.1287C38.9622 16.507 39.8332 14.3218 39.9816 11.8065L40 11.01C39.9966 10.4074 39.9631 9.90212 39.8941 9.41751Z" fill="#02C5B4"/>
</g>
</svg>
